<svg width="512" height="498" viewBox="0 0 512 498" fill="none" xmlns="http://www.w3.org/2000/svg">
<path d="M115.399 79.1325C89.728 174.094 22.8978 226.005 10.5244 271.772C-1.84889 317.54 -1.52179 420.75 208.996 477.668C419.513 534.585 485.362 413.653 498.958 363.307C562.688 127.616 160.868 -89.0595 115.399 79.1325V79.1325Z" fill="#EEEEEE"/>
<path d="M401.778 394.667H295.111C287.26 394.667 280.889 388.295 280.889 380.444V110.222C280.889 102.372 287.26 96 295.111 96H401.778C409.628 96 416 102.372 416 110.222V380.444C416 388.295 409.628 394.667 401.778 394.667Z" fill="#00ADB5"/>
<path d="M401.778 405.333H295.111C281.387 405.333 270.222 394.169 270.222 380.444V110.222C270.222 96.4978 281.387 85.3333 295.111 85.3333H401.778C415.502 85.3333 426.667 96.4978 426.667 110.222V380.444C426.667 394.169 415.502 405.333 401.778 405.333ZM295.111 106.667C293.148 106.667 291.556 108.26 291.556 110.222V380.444C291.556 382.407 293.148 384 295.111 384H401.778C403.74 384 405.333 382.407 405.333 380.444V110.222C405.333 108.26 403.74 106.667 401.778 106.667H295.111Z" fill="#393E46"/>
<path d="M96 170.667H231.111V192H96V170.667Z" fill="#393E46"/>
<path d="M96 128H231.111V149.333H96V128Z" fill="#393E46"/>
<path d="M96 85.3333H231.111V106.667H96V85.3333Z" fill="#393E46"/>
<path d="M96 213.333H231.111V234.667H96V213.333Z" fill="#393E46"/>
<path d="M96 256H231.111V277.333H96V256Z" fill="#393E46"/>
<path d="M96 298.667H231.111V320H96V298.667Z" fill="#393E46"/>
<path d="M96 341.333H231.111V362.667H96V341.333Z" fill="#393E46"/>
<path d="M96 384H231.111V405.333H96V384Z" fill="#393E46"/>
</svg>
