<svg enable-background="new 0 0 24 24" height="512" viewBox="0 0 24 24" width="512" xmlns="http://www.w3.org/2000/svg"><g id="Color"><g><path d="m22.25 0h-7.5c-.965 0-1.75.785-1.75 1.75v19c0 .965.785 1.75 1.75 1.75h7.5c.965 0 1.75-.785 1.75-1.75v-19c0-.965-.785-1.75-1.75-1.75z" fill="#cfd8dc"/></g></g><g id="regular"><g><path d="m22.25 22.5h-7.5c-.965 0-1.75-.785-1.75-1.75v-19c0-.965.785-1.75 1.75-1.75h7.5c.965 0 1.75.785 1.75 1.75v19c0 .965-.785 1.75-1.75 1.75zm-7.5-21c-.138 0-.25.112-.25.25v19c0 .138.112.25.25.25h7.5c.138 0 .25-.112.25-.25v-19c0-.138-.112-.25-.25-.25z"/></g><g><path d="m10.25 7.5h-9.5c-.414 0-.75-.336-.75-.75s.336-.75.75-.75h9.5c.414 0 .75.336.75.75s-.336.75-.75.75z"/></g><g><path d="m10.25 4.5h-9.5c-.414 0-.75-.336-.75-.75s.336-.75.75-.75h9.5c.414 0 .75.336.75.75s-.336.75-.75.75z"/></g><g><path d="m10.25 1.5h-9.5c-.414 0-.75-.336-.75-.75s.336-.75.75-.75h9.5c.414 0 .75.336.75.75s-.336.75-.75.75z"/></g><g><path d="m10.25 10.5h-9.5c-.414 0-.75-.336-.75-.75s.336-.75.75-.75h9.5c.414 0 .75.336.75.75s-.336.75-.75.75z"/></g><g><path d="m10.25 13.5h-9.5c-.414 0-.75-.336-.75-.75s.336-.75.75-.75h9.5c.414 0 .75.336.75.75s-.336.75-.75.75z"/></g><g><path d="m10.25 16.5h-9.5c-.414 0-.75-.336-.75-.75s.336-.75.75-.75h9.5c.414 0 .75.336.75.75s-.336.75-.75.75z"/></g><g><path d="m10.25 19.5h-9.5c-.414 0-.75-.336-.75-.75s.336-.75.75-.75h9.5c.414 0 .75.336.75.75s-.336.75-.75.75z"/></g><g><path d="m10.25 22.5h-9.5c-.414 0-.75-.336-.75-.75s.336-.75.75-.75h9.5c.414 0 .75.336.75.75s-.336.75-.75.75z"/></g></g></svg>