<svg width="320" height="320" viewBox="0 0 320 320" fill="none" xmlns="http://www.w3.org/2000/svg">
<rect width="320" height="320" rx="17" fill="#393E46"/>
<g clip-path="url(#clip0)">
<path d="M269.333 32H189.333C179.04 32 170.667 40.3733 170.667 50.6667V253.333C170.667 263.627 179.04 272 189.333 272H269.333C279.627 272 288 263.627 288 253.333V50.6667C288 40.3733 279.627 32 269.333 32Z" fill="#00ADB5"/>
<path d="M269.333 272H189.333C179.04 272 170.667 263.627 170.667 253.333V50.6667C170.667 40.3733 179.04 32 189.333 32H269.333C279.627 32 288 40.3733 288 50.6667V253.333C288 263.627 279.627 272 269.333 272ZM189.333 48C187.861 48 186.667 49.1947 186.667 50.6667V253.333C186.667 254.805 187.861 256 189.333 256H269.333C270.805 256 272 254.805 272 253.333V50.6667C272 49.1947 270.805 48 269.333 48H189.333Z" fill="#EEEEEE"/>
<path d="M141.333 112H40C35.584 112 32 108.416 32 104C32 99.584 35.584 96 40 96H141.333C145.749 96 149.333 99.584 149.333 104C149.333 108.416 145.749 112 141.333 112Z" fill="#EEEEEE"/>
<path d="M141.333 80H40C35.584 80 32 76.416 32 72C32 67.584 35.584 64 40 64H141.333C145.749 64 149.333 67.584 149.333 72C149.333 76.416 145.749 80 141.333 80Z" fill="#EEEEEE"/>
<path d="M141.333 48H40C35.584 48 32 44.416 32 40C32 35.584 35.584 32 40 32H141.333C145.749 32 149.333 35.584 149.333 40C149.333 44.416 145.749 48 141.333 48Z" fill="#EEEEEE"/>
<path d="M141.333 144H40C35.584 144 32 140.416 32 136C32 131.584 35.584 128 40 128H141.333C145.749 128 149.333 131.584 149.333 136C149.333 140.416 145.749 144 141.333 144Z" fill="#EEEEEE"/>
<path d="M141.333 176H40C35.584 176 32 172.416 32 168C32 163.584 35.584 160 40 160H141.333C145.749 160 149.333 163.584 149.333 168C149.333 172.416 145.749 176 141.333 176Z" fill="#EEEEEE"/>
<path d="M141.333 208H40C35.584 208 32 204.416 32 200C32 195.584 35.584 192 40 192H141.333C145.749 192 149.333 195.584 149.333 200C149.333 204.416 145.749 208 141.333 208Z" fill="#EEEEEE"/>
<path d="M141.333 240H40C35.584 240 32 236.416 32 232C32 227.584 35.584 224 40 224H141.333C145.749 224 149.333 227.584 149.333 232C149.333 236.416 145.749 240 141.333 240Z" fill="#EEEEEE"/>
<path d="M141.333 272H40C35.584 272 32 268.416 32 264C32 259.584 35.584 256 40 256H141.333C145.749 256 149.333 259.584 149.333 264C149.333 268.416 145.749 272 141.333 272Z" fill="#EEEEEE"/>
</g>
<defs>
<clipPath id="clip0">
<rect width="256" height="256" fill="white" transform="translate(32 32)"/>
</clipPath>
</defs>
</svg>
