<svg width="256" height="256" viewBox="0 0 256 256" fill="none" xmlns="http://www.w3.org/2000/svg">
<g clip-path="url(#clip0)">
<path d="M237.333 0H157.333C147.04 0 138.667 8.37333 138.667 18.6667V221.333C138.667 231.627 147.04 240 157.333 240H237.333C247.627 240 256 231.627 256 221.333V18.6667C256 8.37333 247.627 0 237.333 0Z" fill="#00ADB5"/>
<path d="M237.333 240H157.333C147.04 240 138.667 231.627 138.667 221.333V18.6667C138.667 8.37333 147.04 0 157.333 0H237.333C247.627 0 256 8.37333 256 18.6667V221.333C256 231.627 247.627 240 237.333 240ZM157.333 16C155.861 16 154.667 17.1947 154.667 18.6667V221.333C154.667 222.805 155.861 224 157.333 224H237.333C238.805 224 240 222.805 240 221.333V18.6667C240 17.1947 238.805 16 237.333 16H157.333Z" fill="#393E46"/>
<path d="M109.333 80H8C3.584 80 0 76.416 0 72C0 67.584 3.584 64 8 64H109.333C113.749 64 117.333 67.584 117.333 72C117.333 76.416 113.749 80 109.333 80Z" fill="#393E46"/>
<path d="M109.333 48H8C3.584 48 0 44.416 0 40C0 35.584 3.584 32 8 32H109.333C113.749 32 117.333 35.584 117.333 40C117.333 44.416 113.749 48 109.333 48Z" fill="#393E46"/>
<path d="M109.333 16H8C3.584 16 0 12.416 0 8C0 3.584 3.584 0 8 0H109.333C113.749 0 117.333 3.584 117.333 8C117.333 12.416 113.749 16 109.333 16Z" fill="#393E46"/>
<path d="M109.333 112H8C3.584 112 0 108.416 0 104C0 99.584 3.584 96 8 96H109.333C113.749 96 117.333 99.584 117.333 104C117.333 108.416 113.749 112 109.333 112Z" fill="#393E46"/>
<path d="M109.333 144H8C3.584 144 0 140.416 0 136C0 131.584 3.584 128 8 128H109.333C113.749 128 117.333 131.584 117.333 136C117.333 140.416 113.749 144 109.333 144Z" fill="#393E46"/>
<path d="M109.333 176H8C3.584 176 0 172.416 0 168C0 163.584 3.584 160 8 160H109.333C113.749 160 117.333 163.584 117.333 168C117.333 172.416 113.749 176 109.333 176Z" fill="#393E46"/>
<path d="M109.333 208H8C3.584 208 0 204.416 0 200C0 195.584 3.584 192 8 192H109.333C113.749 192 117.333 195.584 117.333 200C117.333 204.416 113.749 208 109.333 208Z" fill="#393E46"/>
<path d="M109.333 240H8C3.584 240 0 236.416 0 232C0 227.584 3.584 224 8 224H109.333C113.749 224 117.333 227.584 117.333 232C117.333 236.416 113.749 240 109.333 240Z" fill="#393E46"/>
</g>
<defs>
<clipPath id="clip0">
<rect width="256" height="256" fill="white"/>
</clipPath>
</defs>
</svg>
