<svg width="310" height="285" viewBox="0 0 310 285" fill="none" xmlns="http://www.w3.org/2000/svg">
<path d="M279.097 17.8125H189.82C178.333 17.8125 168.989 25.8915 168.989 35.8229V231.365C168.989 241.296 178.333 249.375 189.82 249.375H279.097C290.584 249.375 299.928 241.296 299.928 231.365V35.8229C299.928 25.8915 290.584 17.8125 279.097 17.8125Z" fill="#00ADB5"/>
<path d="M287.396 267.188H190.521C178.056 267.188 167.917 257.866 167.917 246.406V20.7812C167.917 9.32188 178.056 0 190.521 0H287.396C299.86 0 310 9.32188 310 20.7812V246.406C310 257.866 299.86 267.188 287.396 267.188ZM190.521 17.8125C188.738 17.8125 187.292 19.1425 187.292 20.7812V246.406C187.292 248.045 188.738 249.375 190.521 249.375H287.396C289.178 249.375 290.625 248.045 290.625 246.406V20.7812C290.625 19.1425 289.178 17.8125 287.396 17.8125H190.521Z" fill="#EEEEEE"/>
<path d="M132.396 89.0625H9.68749C4.33999 89.0625 -7.62939e-06 85.0725 -7.62939e-06 80.1562C-7.62939e-06 75.24 4.33999 71.25 9.68749 71.25H132.396C137.743 71.25 142.083 75.24 142.083 80.1562C142.083 85.0725 137.743 89.0625 132.396 89.0625Z" fill="#EEEEEE"/>
<path d="M132.396 53.4375H9.68749C4.33999 53.4375 -7.62939e-06 49.4475 -7.62939e-06 44.5312C-7.62939e-06 39.615 4.33999 35.625 9.68749 35.625H132.396C137.743 35.625 142.083 39.615 142.083 44.5312C142.083 49.4475 137.743 53.4375 132.396 53.4375Z" fill="#EEEEEE"/>
<path d="M132.396 17.8125H9.6875C4.34 17.8125 0 13.8225 0 8.90625C0 3.99 4.34 0 9.6875 0H132.396C137.743 0 142.083 3.99 142.083 8.90625C142.083 13.8225 137.743 17.8125 132.396 17.8125Z" fill="#EEEEEE"/>
<path d="M132.396 124.688H9.68749C4.33999 124.688 -7.62939e-06 120.698 -7.62939e-06 115.781C-7.62939e-06 110.865 4.33999 106.875 9.68749 106.875H132.396C137.743 106.875 142.083 110.865 142.083 115.781C142.083 120.698 137.743 124.688 132.396 124.688Z" fill="#EEEEEE"/>
<path d="M132.396 160.312H9.68749C4.33999 160.312 -7.62939e-06 156.323 -7.62939e-06 151.406C-7.62939e-06 146.49 4.33999 142.5 9.68749 142.5H132.396C137.743 142.5 142.083 146.49 142.083 151.406C142.083 156.323 137.743 160.312 132.396 160.312Z" fill="#EEEEEE"/>
<path d="M132.396 195.938H9.68749C4.33999 195.938 -7.62939e-06 191.948 -7.62939e-06 187.031C-7.62939e-06 182.115 4.33999 178.125 9.68749 178.125H132.396C137.743 178.125 142.083 182.115 142.083 187.031C142.083 191.948 137.743 195.938 132.396 195.938Z" fill="#EEEEEE"/>
<path d="M132.396 231.562H9.68749C4.33999 231.562 -7.62939e-06 227.573 -7.62939e-06 222.656C-7.62939e-06 217.74 4.33999 213.75 9.68749 213.75H132.396C137.743 213.75 142.083 217.74 142.083 222.656C142.083 227.573 137.743 231.562 132.396 231.562Z" fill="#EEEEEE"/>
<path d="M132.396 267.188H9.68749C4.33999 267.188 -7.62939e-06 263.198 -7.62939e-06 258.281C-7.62939e-06 253.365 4.33999 249.375 9.68749 249.375H132.396C137.743 249.375 142.083 253.365 142.083 258.281C142.083 263.198 137.743 267.188 132.396 267.188Z" fill="#EEEEEE"/>
</svg>
